<?xml version="1.0" encoding="utf-8"?>
<!-- Generator: Adobe Illustrator 19.2.0, SVG Export Plug-In . SVG Version: 6.00 Build 0)  -->
<svg version="1.0" id="Слой_1" xmlns="http://www.w3.org/2000/svg" xmlns:xlink="http://www.w3.org/1999/xlink" x="0px" y="0px"
	 viewBox="0 0 159.8 42" style="enable-background:new 0 0 159.8 42;" xml:space="preserve">
<style type="text/css">
	.st0{fill:#FFFFFF;}
</style>
<path class="st0" d="M13.2,31.9C9.7,22.5,8.9,21.7,0.1,18.9C-0.6,12,4.6,6.1,11.7,5.7c8-0.5,14.3,5.2,14.4,13.1
	C26.2,26.5,20.7,32,13.2,31.9z M17.4,26.8c3.9-1.5,4.9-5.3,4.2-9.8c-0.6-3.8-3.1-6.2-6.9-6.8c-4.5-0.7-8.2,0.4-9.7,4.2
	C9.3,18.7,13.2,22.5,17.4,26.8z"/>
<path class="st0" d="M60.3,28c-4.9,3.1-7-2-10-1.8c-2.9,0.2-5.7,2.3-8.6,3.5c-0.5-0.5-0.9-1-1.4-1.5c1.9-5.7,3.5-11.6,5.7-17.2
	c1-2.5,7.9-2,8.9,0.6C56.8,17.1,58.5,22.6,60.3,28z"/>
<path class="st0" d="M85,20c-0.1,1.8,0.2,3.7-0.4,5.2c-0.6,1.5-2.1,2.6-3.2,3.9c-1.2-1.2-3.2-2.3-3.3-3.6c-0.4-4.6-0.2-9.3-0.1-13.9
	c0-0.8,0.4-1.6,0.5-2.4c3.9-1.1,6.8-0.7,6.5,4.1c6.9,1,11.2,9.4,7.7,14.7c-0.5,0.8-2.4,1.2-3.5,1c-1-0.2-2.4-1.3-2.5-2.2
	c-0.4-2.2-0.1-4.5-0.1-6.8C86.1,20,85.5,20,85,20z"/>
<path class="st0" d="M68,20c-0.1,2,0.2,4-0.4,5.8c-0.5,1.3-2.1,3.1-3.2,3.1c-1.1,0-2.5-1.8-3.3-3.1c-0.5-0.7-0.1-1.9-0.1-2.9
	c-0.1-9.6,1.3-10.9,10.9-9c1.6,0.3,3.6,2.4,4.1,4.1c0.7,2.6,0.5,5.6,0.1,8.4c-0.2,1-2.1,2.6-3.1,2.5c-1.1-0.1-2.7-1.6-3-2.7
	c-0.5-1.9-0.1-4.1-0.1-6.2C69.1,20,68.5,20,68,20z"/>
<path class="st0" d="M103.5,21.3c0-5.1,2.4-7.6,7.6-7.6c5,0,7.8,2.7,7.9,7.5c0.1,5-3.1,8.1-8.1,8C106.1,29.1,103.5,26.4,103.5,21.3z
	"/>
<path class="st0" d="M134.2,13.7c3.7,0.5,9.1-0.4,10.7,1.7c2.2,2.9,1.5,8,2,12.2c0,0.2-0.1,0.5-0.1,0.5c-3.9,0.3-8,1.3-11.8,0.5
	c-3.5-0.7-2.7-4.4-2-7.2c0.5-2,1.1-4,1.7-6C134.5,14.8,134.3,14.2,134.2,13.7z"/>
<path class="st0" d="M101.6,21c0,1.8,0.4,3.8-0.1,5.4c-0.4,1.1-2.1,2.5-3.2,2.5c-1.1,0-3.1-1.6-3.1-2.6c-0.3-5.3-0.4-10.7-0.1-16
	c0.1-0.9,2.4-2.1,3.7-2.2c0.9,0,2.6,1.7,2.7,2.7C101.9,14.2,101.7,17.6,101.6,21C101.7,21,101.6,21,101.6,21z"/>
<path class="st0" d="M120.9,14c4.1,0,7.5,0,11.1,0c0.3,2.5,0.9,4.7-2.7,5.8c-0.9,0.3-1.4,3.1-1.6,4.7c-0.3,2.4-0.1,4.7-3.6,4.6
	c-3.7-0.1-3.2-2.7-3.2-4.9C120.8,20.9,120.9,17.7,120.9,14z"/>
</svg>
